<svg xmlns="http://www.w3.org/2000/svg" width="360" height="360" viewBox="0 0 360 360">
  <g fill="black">
    <!-- Pickleball 1 (top-left area) -->
    <g transform="translate(20,30) scale(0.28) rotate(-10 50 50)">
      <path d="m83.941 16.059c-18.695-18.797-49.086-18.879-67.883-0.18359s-18.879 49.086-0.18359 67.883l0.18359 0.18359c18.695 18.797 49.086 18.879 67.883 0.18359s18.879-49.086 0.18359-67.883l-0.18359-0.18359zm-33.941 75.941c-23.195 0-42-18.805-42-42s18.805-42 42-42 42 18.805 42 42c-0.027344 23.184-18.816 41.973-42 42zm0-51c-4.9727 0-9 4.0273-9 9s4.0273 9 9 9 9-4.0273 9-9c-0.007812-4.9688-4.0312-8.9922-9-9zm0 12c-1.6562 0-3-1.3438-3-3s1.3438-3 3-3 3 1.3438 3 3-1.3438 3-3 3zm0-39c-4.9727 0-9 4.0273-9 9s4.0273 9 9 9 9-4.0273 9-9c-0.007812-4.9688-4.0312-8.9922-9-9zm0 12c-1.6562 0-3-1.3438-3-3s1.3438-3 3-3 3 1.3438 3 3-1.3438 3-3 3zm-23.383 1.5c-4.9727 0-9 4.0273-9 9s4.0273 9 9 9c4.9727 0 9-4.0273 9-9-0.007813-4.9688-4.0312-8.9922-9-9zm0 12c-1.6562 0-3-1.3438-3-3s1.3438-3 3-3 3 1.3438 3 3-1.3438 3-3 3zm0 15c-4.9727 0-9 4.0273-9 9s4.0273 9 9 9c4.9727 0 9-4.0273 9-9-0.007813-4.9688-4.0312-8.9922-9-9zm0 12c-1.6562 0-3-1.3438-3-3s1.3438-3 3-3 3 1.3438 3 3-1.3438 3-3 3zm46.766-21c4.9727 0 9-4.0273 9-9s-4.0273-9-9-9c-4.9727 0-9 4.0273-9 9 0.007813 4.9688 4.0312 8.9922 9 9zm0-12c1.6562 0 3 1.3438 3 3s-1.3438 3-3 3-3-1.3438-3-3 1.3438-3 3-3zm0 21c-4.9727 0-9 4.0273-9 9s4.0273 9 9 9c4.9727 0 9-4.0273 9-9-0.003906-4.9688-4.0312-8.9922-9-9zm0 12c-1.6562 0-3-1.3438-3-3s1.3438-3 3-3 3 1.3438 3 3-1.3438 3-3 3zm-23.383 1.5c-4.9727 0-9 4.0273-9 9s4.0273 9 9 9 9-4.0273 9-9c-0.007812-4.9688-4.0312-8.9922-9-9zm0 12c-1.6562 0-3-1.3438-3-3s1.3438-3 3-3 3 1.3438 3 3-1.3438 3-3 3z"/>
    </g>

    <!-- Paddle 1 (top-right area) -->
    <g transform="translate(210,15) scale(0.3) rotate(20 50 50)">
      <path d="m59.52 73.602c-0.69141 0-1.3906-0.0625-2.082-0.1875l-18.414-3.3281c-1.2734-0.23047-2.1211-1.4492-1.8906-2.7227 0.23047-1.2734 1.4609-2.1172 2.7227-1.8906l18.414 3.3281c2.2656 0.41016 4.5898-0.31641 6.2188-1.9453l3.4688-3.4688c0.91406-0.91406 2.3984-0.91406 3.3125 0 0.91406 0.91406 0.91406 2.3984 0 3.3125l-3.4688 3.4688c-2.2148 2.2148-5.2031 3.4297-8.2852 3.4297z"/>
      <path d="m32.215 62.902c-1.1133 0-2.0977-0.79688-2.3047-1.9297l-3.3281-18.414c-0.68359-3.7773 0.53125-7.6562 3.2461-10.371l10.02-10.02c0.91406-0.91406 2.3984-0.91406 3.3125 0 0.91406 0.91406 0.91406 2.3984 0 3.3125l-10.02 10.02c-1.6289 1.6289-2.3555 3.9531-1.9453 6.2227l3.3281 18.414c0.23047 1.2734-0.61719 2.4922-1.8906 2.7227-0.14062 0.023437-0.28125 0.039063-0.41797 0.039063z"/>
      <path d="m16.809 94.531c-1.0156 0-2-0.39844-2.7344-1.1367l-7.4688-7.4688c-0.9375-0.9375-1.3281-2.2656-1.0469-3.5625 0.28125-1.293 1.1875-2.3438 2.4258-2.8086l3.0742-1.1523 19.5-19.504c0.87891-0.87891 2.4336-0.87891 3.3125 0l7.2227 7.2227c0.91406 0.91406 0.91406 2.3984 0 3.3125l-19.5 19.504-1.1523 3.0742c-0.46484 1.2383-1.5156 2.1484-2.8086 2.4258-0.27734 0.058594-0.55078 0.089844-0.82812 0.089844zm-5.9961-11.027 5.6875 5.6875 0.89062-2.3711c0.11719-0.3125 0.30078-0.59766 0.53906-0.83203l18.203-18.203-3.9062-3.9062-18.203 18.203c-0.23828 0.23828-0.51953 0.41797-0.83203 0.53906l-2.3711 0.89062z"/>
      <path d="m31.516 78.055c-0.60156 0-1.1992-0.23047-1.6562-0.6875l-7.2266-7.2266c-0.91406-0.91406-0.91406-2.3984 0-3.3125 0.91406-0.91406 2.3984-0.91406 3.3125 0l7.2266 7.2266c0.91406 0.91406 0.91406 2.3984 0 3.3125-0.45703 0.45703-1.0586 0.6875-1.6562 0.6875z"/>
      <path d="m23.781 85.789c-0.60156 0-1.1992-0.23047-1.6562-0.6875l-7.2266-7.2266c-0.91406-0.91406-0.91406-2.3984 0-3.3125 0.91406-0.91406 2.3984-0.91406 3.3125 0l7.2266 7.2266c0.91406 0.91406 0.91406 2.3984 0 3.3125-0.45703 0.45703-1.0586 0.6875-1.6562 0.6875z"/>
      <path d="m76.172 60.836c-0.16797 0-0.33594-0.015626-0.50391-0.054688-0.78125-0.17188-1.418-0.73047-1.6953-1.4805-2.8203-7.6719-7.1914-14.5-12.984-20.293-5.793-5.793-12.621-10.164-20.293-12.984-0.75-0.27734-1.3086-0.91406-1.4805-1.6953s0.066406-1.5938 0.63281-2.1602l13.332-13.332c3.6914-3.6914 9.4531-4.4258 14.012-1.7891 11.59 6.7109 19.055 14.176 25.766 25.77 2.6328 4.5508 1.9023 10.305-1.7812 13.984l-13.344 13.344c-0.44531 0.44531-1.043 0.6875-1.6562 0.6875zm-30.5-37.863c6.957 3.0352 13.211 7.3008 18.633 12.723 5.418 5.418 9.6875 11.672 12.719 18.629l10.836-10.836c2.1836-2.1836 2.6094-5.6055 1.0391-8.3242-6.3477-10.969-13.094-17.715-24.055-24.062-2.7227-1.5742-6.1523-1.1445-8.3477 1.0469z"/>
      <path d="m69.887 23.617c-0.60156 0-1.1992-0.23047-1.6562-0.6875-2.0586-2.0586-3.8477-3.0664-4.9844-3.5508-0.59766-0.25391-1.2734-0.13672-1.7188 0.30859l-2.1367 2.1406c-0.91406 0.91406-2.3984 0.91406-3.3164 0-0.91406-0.91406-0.91406-2.3984 0-3.3164l2.1367-2.1406c1.8047-1.8008 4.5-2.3164 6.8672-1.3047 2.207 0.9375 4.3789 2.4688 6.4609 4.5508 0.91406 0.91406 0.91406 2.3984 0 3.3125-0.45703 0.45703-1.0586 0.6875-1.6562 0.6875z"/>
    </g>

    <!-- Pickleball 3 (middle-left) -->
    <g transform="translate(15,170) scale(0.22) rotate(35 50 50)">
      <path d="m83.941 16.059c-18.695-18.797-49.086-18.879-67.883-0.18359s-18.879 49.086-0.18359 67.883l0.18359 0.18359c18.695 18.797 49.086 18.879 67.883 0.18359s18.879-49.086 0.18359-67.883l-0.18359-0.18359zm-33.941 75.941c-23.195 0-42-18.805-42-42s18.805-42 42-42 42 18.805 42 42c-0.027344 23.184-18.816 41.973-42 42zm0-51c-4.9727 0-9 4.0273-9 9s4.0273 9 9 9 9-4.0273 9-9c-0.007812-4.9688-4.0312-8.9922-9-9zm0 12c-1.6562 0-3-1.3438-3-3s1.3438-3 3-3 3 1.3438 3 3-1.3438 3-3 3zm0-39c-4.9727 0-9 4.0273-9 9s4.0273 9 9 9 9-4.0273 9-9c-0.007812-4.9688-4.0312-8.9922-9-9zm0 12c-1.6562 0-3-1.3438-3-3s1.3438-3 3-3 3 1.3438 3 3-1.3438 3-3 3zm-23.383 1.5c-4.9727 0-9 4.0273-9 9s4.0273 9 9 9c4.9727 0 9-4.0273 9-9-0.007813-4.9688-4.0312-8.9922-9-9zm0 12c-1.6562 0-3-1.3438-3-3s1.3438-3 3-3 3 1.3438 3 3-1.3438 3-3 3zm0 15c-4.9727 0-9 4.0273-9 9s4.0273 9 9 9c4.9727 0 9-4.0273 9-9-0.007813-4.9688-4.0312-8.9922-9-9zm0 12c-1.6562 0-3-1.3438-3-3s1.3438-3 3-3 3 1.3438 3 3-1.3438 3-3 3zm46.766-21c4.9727 0 9-4.0273 9-9s-4.0273-9-9-9c-4.9727 0-9 4.0273-9 9 0.007813 4.9688 4.0312 8.9922 9 9zm0-12c1.6562 0 3 1.3438 3 3s-1.3438 3-3 3-3-1.3438-3-3 1.3438-3 3-3zm0 21c-4.9727 0-9 4.0273-9 9s4.0273 9 9 9c4.9727 0 9-4.0273 9-9-0.003906-4.9688-4.0312-8.9922-9-9zm0 12c-1.6562 0-3-1.3438-3-3s1.3438-3 3-3 3 1.3438 3 3-1.3438 3-3 3zm-23.383 1.5c-4.9727 0-9 4.0273-9 9s4.0273 9 9 9 9-4.0273 9-9c-0.007812-4.9688-4.0312-8.9922-9-9zm0 12c-1.6562 0-3-1.3438-3-3s1.3438-3 3-3 3 1.3438 3 3-1.3438 3-3 3z"/>
    </g>

    <!-- Conversation (center-right) -->
    <g transform="translate(175,135) scale(0.45) rotate(-8 50 25)">
      <path d="m41.824 11.188c-6.2891 0-11.41 5.1172-11.41 11.41 0 1.4453 0.26563 2.8555 0.79297 4.1875 0.078125 0.19531 0.089844 0.41016 0.035157 0.60938l-1.9062 7.1211 6.6836-1.793c0.23047-0.0625 0.47656-0.035156 0.69141 0.070313 1.5977 0.80078 3.3164 1.207 5.1133 1.207 6.293 0 11.41-5.1172 11.41-11.41 0-6.2891-5.1172-11.41-11.41-11.41zm-13.871 25.688c-0.25391 0-0.50391-0.10156-0.69141-0.28516-0.24609-0.24609-0.34375-0.60547-0.25391-0.94141l2.2656-8.4492c-0.53906-1.4727-0.8125-3.0156-0.8125-4.5977 0-7.3672 5.9922-13.363 13.363-13.363 7.3672 0 13.363 5.9961 13.363 13.363 0 7.3672-5.9961 13.363-13.363 13.363-1.9766 0-3.8789-0.42188-5.6523-1.25l-7.9648 2.1328c-0.082031 0.023438-0.16797 0.035156-0.25391 0.035156z"/>
      <path d="m48.352 19.105h-13.051c-0.53906 0-0.97656-0.4375-0.97656-0.97656 0-0.53906 0.4375-0.97656 0.97656-0.97656h13.051c0.53906 0 0.97656 0.4375 0.97656 0.97656 0 0.53906-0.4375 0.97656-0.97656 0.97656z"/>
      <path d="m48.352 28.039h-13.051c-0.53906 0-0.97656-0.4375-0.97656-0.97656s0.4375-0.97656 0.97656-0.97656h13.051c0.53906 0 0.97656 0.4375 0.97656 0.97656s-0.4375 0.97656-0.97656 0.97656z"/>
      <path d="m43.652 23.57h-8.3516c-0.53906 0-0.97656-0.4375-0.97656-0.97656s0.4375-0.97656 0.97656-0.97656h8.3516c0.53906 0 0.97656 0.4375 0.97656 0.97656s-0.4375 0.97656-0.97656 0.97656z"/>
      <path d="m72.043 36.875c-0.085938 0-0.16797-0.011719-0.25391-0.03125l-7.9648-2.1367c-1.7734 0.83203-3.6719 1.2539-5.6523 1.2539-3.25 0-6.3789-1.1797-8.8203-3.3242-0.40625-0.35547-0.44531-0.97266-0.089843-1.3789s0.97266-0.44531 1.3789-0.089843c2.082 1.8281 4.7539 2.8398 7.5312 2.8398 1.7969 0 3.5195-0.40625 5.1133-1.207 0.21484-0.10938 0.46094-0.13281 0.69141-0.070312l6.6836 1.7891-1.9102-7.1211c-0.054688-0.20313-0.042969-0.41797 0.035156-0.60938 0.52734-1.332 0.79297-2.7422 0.79297-4.1875 0-6.2891-5.1172-11.41-11.41-11.41-2.7734 0-5.4492 1.0078-7.5312 2.8398-0.40625 0.35547-1.0234 0.31641-1.3789-0.089844-0.35547-0.40625-0.31641-1.0234 0.089844-1.3789 2.4375-2.1445 5.5703-3.3242 8.8203-3.3242 7.3672 0 13.363 5.9961 13.363 13.363 0 1.582-0.27344 3.1289-0.8125 4.5977l2.2656 8.4492c0.089844 0.33594-0.007813 0.69531-0.25391 0.94141-0.1875 0.18359-0.43359 0.28516-0.69141 0.28516z"/>
      <path d="m64.699 19.105h-11.32c-0.53906 0-0.97656-0.4375-0.97656-0.97656 0-0.53906 0.4375-0.97656 0.97656-0.97656h11.32c0.53906 0 0.97656 0.4375 0.97656 0.97656 0 0.53906-0.4375 0.97656-0.97656 0.97656zm0 4.4688h-10.488c-0.53906 0-0.97656-0.4375-0.97656-0.97656 0-0.53906 0.4375-0.97656 0.97656-0.97656h10.488c0.53906 0 0.97656 0.4375 0.97656 0.97656 0 0.53906-0.4375 0.97656-0.97656 0.97656zm0 4.4688h-11.32c-0.53906 0-0.97656-0.4375-0.97656-0.97656 0-0.53906 0.4375-0.97656 0.97656-0.97656h11.32c0.53906 0 0.97656 0.4375 0.97656 0.97656 0 0.53906-0.4375 0.97656-0.97656 0.97656z"/>
    </g>

    <!-- Pickleball 2 (bottom-right) -->
    <g transform="translate(245,255) scale(0.25) rotate(25 50 50)">
      <path d="m83.941 16.059c-18.695-18.797-49.086-18.879-67.883-0.18359s-18.879 49.086-0.18359 67.883l0.18359 0.18359c18.695 18.797 49.086 18.879 67.883 0.18359s18.879-49.086 0.18359-67.883l-0.18359-0.18359zm-33.941 75.941c-23.195 0-42-18.805-42-42s18.805-42 42-42 42 18.805 42 42c-0.027344 23.184-18.816 41.973-42 42zm0-51c-4.9727 0-9 4.0273-9 9s4.0273 9 9 9 9-4.0273 9-9c-0.007812-4.9688-4.0312-8.9922-9-9zm0 12c-1.6562 0-3-1.3438-3-3s1.3438-3 3-3 3 1.3438 3 3-1.3438 3-3 3zm0-39c-4.9727 0-9 4.0273-9 9s4.0273 9 9 9 9-4.0273 9-9c-0.007812-4.9688-4.0312-8.9922-9-9zm0 12c-1.6562 0-3-1.3438-3-3s1.3438-3 3-3 3 1.3438 3 3-1.3438 3-3 3zm-23.383 1.5c-4.9727 0-9 4.0273-9 9s4.0273 9 9 9c4.9727 0 9-4.0273 9-9-0.007813-4.9688-4.0312-8.9922-9-9zm0 12c-1.6562 0-3-1.3438-3-3s1.3438-3 3-3 3 1.3438 3 3-1.3438 3-3 3zm0 15c-4.9727 0-9 4.0273-9 9s4.0273 9 9 9c4.9727 0 9-4.0273 9-9-0.007813-4.9688-4.0312-8.9922-9-9zm0 12c-1.6562 0-3-1.3438-3-3s1.3438-3 3-3 3 1.3438 3 3-1.3438 3-3 3zm46.766-21c4.9727 0 9-4.0273 9-9s-4.0273-9-9-9c-4.9727 0-9 4.0273-9 9 0.007813 4.9688 4.0312 8.9922 9 9zm0-12c1.6562 0 3 1.3438 3 3s-1.3438 3-3 3-3-1.3438-3-3 1.3438-3 3-3zm0 21c-4.9727 0-9 4.0273-9 9s4.0273 9 9 9c4.9727 0 9-4.0273 9-9-0.003906-4.9688-4.0312-8.9922-9-9zm0 12c-1.6562 0-3-1.3438-3-3s1.3438-3 3-3 3 1.3438 3 3-1.3438 3-3 3zm-23.383 1.5c-4.9727 0-9 4.0273-9 9s4.0273 9 9 9 9-4.0273 9-9c-0.007812-4.9688-4.0312-8.9922-9-9zm0 12c-1.6562 0-3-1.3438-3-3s1.3438-3 3-3 3 1.3438 3 3-1.3438 3-3 3z"/>
    </g>

    <!-- Paddle 2 (bottom-left) -->
    <g transform="translate(60,275) scale(0.28) rotate(-15 50 50)">
      <path d="m59.52 73.602c-0.69141 0-1.3906-0.0625-2.082-0.1875l-18.414-3.3281c-1.2734-0.23047-2.1211-1.4492-1.8906-2.7227 0.23047-1.2734 1.4609-2.1172 2.7227-1.8906l18.414 3.3281c2.2656 0.41016 4.5898-0.31641 6.2188-1.9453l3.4688-3.4688c0.91406-0.91406 2.3984-0.91406 3.3125 0 0.91406 0.91406 0.91406 2.3984 0 3.3125l-3.4688 3.4688c-2.2148 2.2148-5.2031 3.4297-8.2852 3.4297z"/>
      <path d="m32.215 62.902c-1.1133 0-2.0977-0.79688-2.3047-1.9297l-3.3281-18.414c-0.68359-3.7773 0.53125-7.6562 3.2461-10.371l10.02-10.02c0.91406-0.91406 2.3984-0.91406 3.3125 0 0.91406 0.91406 0.91406 2.3984 0 3.3125l-10.02 10.02c-1.6289 1.6289-2.3555 3.9531-1.9453 6.2227l3.3281 18.414c0.23047 1.2734-0.61719 2.4922-1.8906 2.7227-0.14062 0.023437-0.28125 0.039063-0.41797 0.039063z"/>
      <path d="m76.172 60.836c-0.16797 0-0.33594-0.015626-0.50391-0.054688-0.78125-0.17188-1.418-0.73047-1.6953-1.4805-2.8203-7.6719-7.1914-14.5-12.984-20.293-5.793-5.793-12.621-10.164-20.293-12.984-0.75-0.27734-1.3086-0.91406-1.4805-1.6953s0.066406-1.5938 0.63281-2.1602l13.332-13.332c3.6914-3.6914 9.4531-4.4258 14.012-1.7891 11.59 6.7109 19.055 14.176 25.766 25.77 2.6328 4.5508 1.9023 10.305-1.7812 13.984l-13.344 13.344c-0.44531 0.44531-1.043 0.6875-1.6562 0.6875zm-30.5-37.863c6.957 3.0352 13.211 7.3008 18.633 12.723 5.418 5.418 9.6875 11.672 12.719 18.629l10.836-10.836c2.1836-2.1836 2.6094-5.6055 1.0391-8.3242-6.3477-10.969-13.094-17.715-24.055-24.062-2.7227-1.5742-6.1523-1.1445-8.3477 1.0469z"/>
    </g>

    <!-- Paddle 3 (top-center) -->
    <g transform="translate(120,65) scale(0.25) rotate(-30 50 50)">
      <path d="m59.52 73.602c-0.69141 0-1.3906-0.0625-2.082-0.1875l-18.414-3.3281c-1.2734-0.23047-2.1211-1.4492-1.8906-2.7227 0.23047-1.2734 1.4609-2.1172 2.7227-1.8906l18.414 3.3281c2.2656 0.41016 4.5898-0.31641 6.2188-1.9453l3.4688-3.4688c0.91406-0.91406 2.3984-0.91406 3.3125 0 0.91406 0.91406 0.91406 2.3984 0 3.3125l-3.4688 3.4688c-2.2148 2.2148-5.2031 3.4297-8.2852 3.4297z"/>
      <path d="m32.215 62.902c-1.1133 0-2.0977-0.79688-2.3047-1.9297l-3.3281-18.414c-0.68359-3.7773 0.53125-7.6562 3.2461-10.371l10.02-10.02c0.91406-0.91406 2.3984-0.91406 3.3125 0 0.91406 0.91406 0.91406 2.3984 0 3.3125l-10.02 10.02c-1.6289 1.6289-2.3555 3.9531-1.9453 6.2227l3.3281 18.414c0.23047 1.2734-0.61719 2.4922-1.8906 2.7227-0.14062 0.023437-0.28125 0.039063-0.41797 0.039063z"/>
      <path d="m76.172 60.836c-0.16797 0-0.33594-0.015626-0.50391-0.054688-0.78125-0.17188-1.418-0.73047-1.6953-1.4805-2.8203-7.6719-7.1914-14.5-12.984-20.293-5.793-5.793-12.621-10.164-20.293-12.984-0.75-0.27734-1.3086-0.91406-1.4805-1.6953s0.066406-1.5938 0.63281-2.1602l13.332-13.332c3.6914-3.6914 9.4531-4.4258 14.012-1.7891 11.59 6.7109 19.055 14.176 25.766 25.77 2.6328 4.5508 1.9023 10.305-1.7812 13.984l-13.344 13.344c-0.44531 0.44531-1.043 0.6875-1.6562 0.6875zm-30.5-37.863c6.957 3.0352 13.211 7.3008 18.633 12.723 5.418 5.418 9.6875 11.672 12.719 18.629l10.836-10.836c2.1836-2.1836 2.6094-5.6055 1.0391-8.3242-6.3477-10.969-13.094-17.715-24.055-24.062-2.7227-1.5742-6.1523-1.1445-8.3477 1.0469z"/>
    </g>

    <!-- Conversation 2 (bottom-center) -->
    <g transform="translate(155,305) scale(0.38) rotate(12 50 25)">
      <path d="m41.824 11.188c-6.2891 0-11.41 5.1172-11.41 11.41 0 1.4453 0.26563 2.8555 0.79297 4.1875 0.078125 0.19531 0.089844 0.41016 0.035157 0.60938l-1.9062 7.1211 6.6836-1.793c0.23047-0.0625 0.47656-0.035156 0.69141 0.070313 1.5977 0.80078 3.3164 1.207 5.1133 1.207 6.293 0 11.41-5.1172 11.41-11.41 0-6.2891-5.1172-11.41-11.41-11.41zm-13.871 25.688c-0.25391 0-0.50391-0.10156-0.69141-0.28516-0.24609-0.24609-0.34375-0.60547-0.25391-0.94141l2.2656-8.4492c-0.53906-1.4727-0.8125-3.0156-0.8125-4.5977 0-7.3672 5.9922-13.363 13.363-13.363 7.3672 0 13.363 5.9961 13.363 13.363 0 7.3672-5.9961 13.363-13.363 13.363-1.9766 0-3.8789-0.42188-5.6523-1.25l-7.9648 2.1328c-0.082031 0.023438-0.16797 0.035156-0.25391 0.035156z"/>
      <path d="m72.043 36.875c-0.085938 0-0.16797-0.011719-0.25391-0.03125l-7.9648-2.1367c-1.7734 0.83203-3.6719 1.2539-5.6523 1.2539-3.25 0-6.3789-1.1797-8.8203-3.3242-0.40625-0.35547-0.44531-0.97266-0.089843-1.3789s0.97266-0.44531 1.3789-0.089843c2.082 1.8281 4.7539 2.8398 7.5312 2.8398 1.7969 0 3.5195-0.40625 5.1133-1.207 0.21484-0.10938 0.46094-0.13281 0.69141-0.070312l6.6836 1.7891-1.9102-7.1211c-0.054688-0.20313-0.042969-0.41797 0.035156-0.60938 0.52734-1.332 0.79297-2.7422 0.79297-4.1875 0-6.2891-5.1172-11.41-11.41-11.41-2.7734 0-5.4492 1.0078-7.5312 2.8398-0.40625 0.35547-1.0234 0.31641-1.3789-0.089844-0.35547-0.40625-0.31641-1.0234 0.089844-1.3789 2.4375-2.1445 5.5703-3.3242 8.8203-3.3242 7.3672 0 13.363 5.9961 13.363 13.363 0 1.582-0.27344 3.1289-0.8125 4.5977l2.2656 8.4492c0.089844 0.33594-0.007813 0.69531-0.25391 0.94141-0.1875 0.18359-0.43359 0.28516-0.69141 0.28516z"/>
    </g>
  </g>
</svg>
