<svg viewBox="0 0 172 132" fill="none" xmlns="http://www.w3.org/2000/svg">
<path d="M42.3834 76.7103C36.3788 70.7057 36.3788 60.9701 42.3834 54.9654L86.4763 10.8726C92.481 4.86789 102.217 4.86789 108.221 10.8726L152.314 54.9654C158.319 60.9701 158.319 70.7057 152.314 76.7103L108.221 120.803C102.217 126.808 92.481 126.808 86.4763 120.803L42.3834 76.7103Z" fill="white"/>
<path d="M76.2457 55.3184C82.8791 61.3723 82.8056 71.4446 76.0846 77.4011L27.2221 120.705C16.9008 129.853 0.0136777 122.852 0.1113 109.466L0.748099 22.1491C0.845722 8.76323 17.8332 2.0092 28.02 11.3061L76.2457 55.3184Z" fill="white"/>
<path d="M95.4579 76.8854C88.8245 70.8315 88.898 60.7593 95.619 54.8028L144.481 11.4985C154.803 2.3512 171.69 9.35229 171.592 22.7381L170.956 110.055C170.858 123.441 153.87 130.195 143.684 120.898L95.4579 76.8854Z" fill="white"/>
<path d="M71.3887 56.3651C77.2603 62.0281 77.1915 71.4541 71.238 77.0308L27.9555 117.574C18.8129 126.138 3.86228 119.593 3.95363 107.066L4.54957 25.3519C4.64093 12.8249 19.6854 6.49805 28.7022 15.1946L71.3887 56.3651Z" fill="#003D30"/>
<path d="M36.4573 73.1503C36.4573 75.1187 34.8616 76.7144 32.8932 76.7144C30.9249 76.7144 29.3292 75.1187 29.3292 73.1503L29.3292 58.8941C29.3292 56.9258 30.9249 55.3301 32.8932 55.3301C34.8616 55.3301 36.4573 56.9258 36.4573 58.8941L36.4573 73.1503Z" fill="#00B08A"/>
<path d="M46.5379 76.1026C40.9705 70.5352 40.9705 61.5087 46.5379 55.9413L87.4197 15.0595C92.9871 9.49216 102.014 9.49216 107.581 15.0595L148.463 55.9413C154.03 61.5087 154.03 70.5352 148.463 76.1026L107.581 116.984C102.014 122.552 92.9871 122.552 87.4197 116.984L46.5379 76.1026Z" fill="#00B08A"/>
<path d="M71.39 56.3654C77.2611 62.0283 77.1917 71.4543 71.2386 77.0309L58.9628 88.5271L46.5391 76.1034C40.9717 70.536 40.9717 61.5081 46.5391 55.9407L58.5225 43.9556L71.39 56.3654Z" fill="#B6FF49"/>
<path d="M101.337 56.3651C95.4658 62.0281 95.5346 71.4541 101.488 77.0308L144.771 117.574C153.913 126.138 168.864 119.593 168.772 107.066L168.177 25.3519C168.085 12.8249 153.041 6.49805 144.024 15.1946L101.337 56.3651Z" fill="#003D30"/>
<path d="M152.289 69.5862C150.321 69.5862 148.725 67.9905 148.725 66.0221C148.725 64.0538 150.321 62.4581 152.289 62.4581L166.545 62.4581C168.513 62.4581 170.109 64.0538 170.109 66.0221C170.109 67.9905 168.513 69.5862 166.545 69.5862L152.289 69.5862Z" fill="#00B08A"/>
</svg>
