<svg viewBox="0 0 624 132" fill="none" xmlns="http://www.w3.org/2000/svg">
<!-- Icon -->
<path d="M42.3834 76.7103C36.3788 70.7057 36.3788 60.9701 42.3834 54.9654L86.4763 10.8726C92.481 4.86789 102.217 4.86789 108.221 10.8726L152.314 54.9654C158.319 60.9701 158.319 70.7057 152.314 76.7103L108.221 120.803C102.217 126.808 92.481 126.808 86.4763 120.803L42.3834 76.7103Z" fill="#EAFEF6"/>
<path d="M76.2457 55.3184C82.8791 61.3723 82.8056 71.4446 76.0846 77.4011L27.2221 120.705C16.9008 129.853 0.0136777 122.852 0.1113 109.466L0.748099 22.1491C0.845722 8.76323 17.8332 2.0092 28.02 11.3061L76.2457 55.3184Z" fill="#EAFEF6"/>
<path d="M95.4579 76.8854C88.8245 70.8315 88.898 60.7593 95.619 54.8028L144.481 11.4985C154.803 2.3512 171.69 9.35229 171.592 22.7381L170.956 110.055C170.858 123.441 153.87 130.195 143.684 120.898L95.4579 76.8854Z" fill="#EAFEF6"/>
<path d="M71.3887 56.3651C77.2603 62.0281 77.1915 71.4541 71.238 77.0308L27.9555 117.574C18.8129 126.138 3.86228 119.593 3.95363 107.066L4.54957 25.3519C4.64093 12.8249 19.6854 6.49805 28.7022 15.1946L71.3887 56.3651Z" fill="#003D30"/>
<path d="M36.4573 73.1503C36.4573 75.1187 34.8616 76.7144 32.8932 76.7144C30.9249 76.7144 29.3292 75.1187 29.3292 73.1503L29.3292 58.8941C29.3292 56.9258 30.9249 55.3301 32.8932 55.3301C34.8616 55.3301 36.4573 56.9258 36.4573 58.8941L36.4573 73.1503Z" fill="#00B08A"/>
<path d="M46.5379 76.1026C40.9705 70.5352 40.9705 61.5087 46.5379 55.9413L87.4197 15.0595C92.9871 9.49216 102.014 9.49216 107.581 15.0595L148.463 55.9413C154.03 61.5087 154.03 70.5352 148.463 76.1026L107.581 116.984C102.014 122.552 92.9871 122.552 87.4197 116.984L46.5379 76.1026Z" fill="#00B08A"/>
<path d="M71.39 56.3654C77.2611 62.0283 77.1917 71.4543 71.2386 77.0309L58.9628 88.5271L46.5391 76.1034C40.9717 70.536 40.9717 61.5081 46.5391 55.9407L58.5225 43.9556L71.39 56.3654Z" fill="#B6FF49"/>
<path d="M101.337 56.3651C95.4658 62.0281 95.5346 71.4541 101.488 77.0308L144.771 117.574C153.913 126.138 168.864 119.593 168.772 107.066L168.177 25.3519C168.085 12.8249 153.041 6.49805 144.024 15.1946L101.337 56.3651Z" fill="#003D30"/>
<path d="M152.289 69.5862C150.321 69.5862 148.725 67.9905 148.725 66.0221C148.725 64.0538 150.321 62.4581 152.289 62.4581L166.545 62.4581C168.513 62.4581 170.109 64.0538 170.109 66.0221C170.109 67.9905 168.513 69.5862 166.545 69.5862L152.289 69.5862Z" fill="#00B08A"/>
<!-- Text: Dink Over Coffee -->
<g transform="translate(192, -267) scale(2)">
<path d="M0.655786 176.875C0.446695 176.875 0.285124 176.818 0.171074 176.704C0.0570248 176.571 0 176.409 0 176.219V157.601C0 157.392 0.0570248 157.23 0.171074 157.116C0.285124 156.983 0.446695 156.917 0.655786 156.917H7.1281C9.08596 156.917 10.6636 157.211 11.8612 157.8C13.0587 158.39 13.9331 159.264 14.4843 160.424C15.0355 161.564 15.3207 162.971 15.3397 164.643C15.3587 165.499 15.3682 166.25 15.3682 166.896C15.3682 167.542 15.3587 168.283 15.3397 169.12C15.3017 170.869 15.007 172.323 14.4558 173.482C13.9236 174.623 13.0682 175.478 11.8897 176.048C10.7302 176.6 9.1905 176.875 7.27067 176.875H0.655786ZM2.79422 174.452H7.1281C8.43967 174.452 9.48513 174.271 10.2645 173.91C11.0438 173.549 11.6046 172.969 11.9467 172.171C12.3079 171.372 12.4979 170.317 12.5169 169.006C12.555 168.436 12.574 167.941 12.574 167.523C12.574 167.086 12.574 166.658 12.574 166.24C12.574 165.803 12.555 165.309 12.5169 164.757C12.4789 162.914 12.0417 161.555 11.2054 160.68C10.369 159.787 8.9624 159.34 6.98554 159.34H2.79422V174.452Z" fill="#EAFEF6"/>
<path d="M19.9432 176.875C19.7531 176.875 19.5916 176.818 19.4585 176.704C19.3445 176.571 19.2874 176.409 19.2874 176.219V162.704C19.2874 162.514 19.3445 162.362 19.4585 162.248C19.5916 162.115 19.7531 162.049 19.9432 162.049H21.3118C21.5019 162.049 21.654 162.115 21.768 162.248C21.8821 162.362 21.9391 162.514 21.9391 162.704V176.219C21.9391 176.409 21.8821 176.571 21.768 176.704C21.654 176.818 21.5019 176.875 21.3118 176.875H19.9432ZM19.7151 159.283C19.525 159.283 19.3635 159.226 19.2304 159.112C19.1164 158.979 19.0593 158.817 19.0593 158.627V157.087C19.0593 156.897 19.1164 156.745 19.2304 156.631C19.3635 156.498 19.525 156.432 19.7151 156.432H21.5114C21.7015 156.432 21.8535 156.498 21.9676 156.631C22.1007 156.745 22.1672 156.897 22.1672 157.087V158.627C22.1672 158.817 22.1007 158.979 21.9676 159.112C21.8535 159.226 21.7015 159.283 21.5114 159.283H19.7151Z" fill="#EAFEF6"/>
<path d="M26.8484 176.875C26.6583 176.875 26.4968 176.818 26.3637 176.704C26.2497 176.571 26.1926 176.409 26.1926 176.219V162.704C26.1926 162.514 26.2497 162.362 26.3637 162.248C26.4968 162.115 26.6583 162.049 26.8484 162.049H28.1885C28.3786 162.049 28.5306 162.115 28.6447 162.248C28.7778 162.362 28.8443 162.514 28.8443 162.704V163.959C29.3385 163.313 29.9563 162.79 30.6976 162.391C31.4579 161.973 32.4273 161.763 33.6059 161.763C34.8414 161.763 35.8868 162.039 36.7422 162.59C37.6166 163.123 38.2724 163.873 38.7096 164.843C39.1468 165.793 39.3654 166.905 39.3654 168.179V176.219C39.3654 176.409 39.3083 176.571 39.1943 176.704C39.0802 176.818 38.9282 176.875 38.7381 176.875H37.3125C37.1224 176.875 36.9608 176.818 36.8278 176.704C36.7137 176.571 36.6567 176.409 36.6567 176.219V168.321C36.6567 166.991 36.3335 165.955 35.6873 165.213C35.041 164.453 34.0906 164.073 32.836 164.073C31.6575 164.073 30.7071 164.453 29.9848 165.213C29.2815 165.955 28.9298 166.991 28.9298 168.321V176.219C28.9298 176.409 28.8633 176.571 28.7302 176.704C28.6162 176.818 28.4641 176.875 28.274 176.875H26.8484Z" fill="#EAFEF6"/>
<path d="M44.168 176.875C43.9779 176.875 43.8163 176.818 43.6833 176.704C43.5692 176.571 43.5122 176.409 43.5122 176.219V157.287C43.5122 157.097 43.5692 156.945 43.6833 156.831C43.8163 156.698 43.9779 156.631 44.168 156.631H45.5081C45.6982 156.631 45.8502 156.698 45.9643 156.831C46.0973 156.945 46.1639 157.097 46.1639 157.287V167.209L51.7808 162.533C52.0089 162.343 52.18 162.22 52.294 162.163C52.4271 162.087 52.6362 162.049 52.9213 162.049H54.4325C54.6035 162.049 54.7461 162.106 54.8601 162.22C54.9742 162.334 55.0312 162.476 55.0312 162.647C55.0312 162.724 55.0027 162.809 54.9457 162.904C54.9077 162.999 54.8221 163.094 54.6891 163.189L48.1027 168.664L55.4019 175.763C55.63 175.953 55.744 176.124 55.744 176.276C55.744 176.447 55.687 176.59 55.573 176.704C55.4589 176.818 55.3163 176.875 55.1453 176.875H53.6626C53.3775 176.875 53.1684 176.847 53.0354 176.79C52.9023 176.714 52.7312 176.581 52.5221 176.39L46.1639 170.317V176.219C46.1639 176.409 46.0973 176.571 45.9643 176.704C45.8502 176.818 45.6982 176.875 45.5081 176.875H44.168Z" fill="#EAFEF6"/>
<path d="M72.423 177.16C70.8073 177.16 69.4197 176.885 68.2602 176.333C67.1007 175.763 66.2073 174.898 65.5801 173.739C64.9528 172.56 64.6011 171.087 64.5251 169.319C64.5061 168.483 64.4966 167.685 64.4966 166.924C64.4966 166.145 64.5061 165.337 64.5251 164.501C64.6011 162.752 64.9623 161.298 65.6086 160.138C66.2739 158.96 67.1863 158.085 68.3458 157.515C69.5243 156.926 70.8834 156.631 72.423 156.631C73.9817 156.631 75.3408 156.926 76.5003 157.515C77.6788 158.085 78.6007 158.96 79.266 160.138C79.9313 161.298 80.2925 162.752 80.3495 164.501C80.3875 165.337 80.4065 166.145 80.4065 166.924C80.4065 167.685 80.3875 168.483 80.3495 169.319C80.2925 171.087 79.9408 172.56 79.2945 173.739C78.6673 174.898 77.7739 175.763 76.6144 176.333C75.4549 176.885 74.0577 177.16 72.423 177.16ZM72.423 174.737C73.8867 174.737 75.0747 174.3 75.9871 173.425C76.9185 172.551 77.4222 171.135 77.4982 169.177C77.5363 168.321 77.5553 167.561 77.5553 166.896C77.5553 166.212 77.5363 165.451 77.4982 164.615C77.4602 163.303 77.2131 162.239 76.7569 161.421C76.3197 160.604 75.7305 160.005 74.9892 159.625C74.2478 159.245 73.3925 159.055 72.423 159.055C71.4916 159.055 70.6553 159.245 69.9139 159.625C69.1726 160.005 68.5739 160.604 68.1177 161.421C67.6805 162.239 67.4334 163.303 67.3763 164.615C67.3573 165.451 67.3478 166.212 67.3478 166.896C67.3478 167.561 67.3573 168.321 67.3763 169.177C67.4524 171.135 67.9561 172.551 68.8875 173.425C69.8189 174.3 70.9974 174.737 72.423 174.737Z" fill="#EAFEF6"/>
<path d="M89.3529 176.875C89.0677 176.875 88.8396 176.808 88.6685 176.675C88.5165 176.542 88.3929 176.371 88.2979 176.162L83.0231 162.932C82.9851 162.837 82.9661 162.742 82.9661 162.647C82.9661 162.476 83.0231 162.333 83.1371 162.219C83.2512 162.105 83.3938 162.048 83.5648 162.048H84.9334C85.1425 162.048 85.3041 162.105 85.4181 162.219C85.5322 162.333 85.5987 162.438 85.6177 162.533L89.9801 173.767L94.314 162.533C94.352 162.438 94.4186 162.333 94.5136 162.219C94.6276 162.105 94.7892 162.048 94.9983 162.048H96.3954C96.5475 162.048 96.6805 162.105 96.7946 162.219C96.9276 162.333 96.9942 162.476 96.9942 162.647C96.9942 162.742 96.9752 162.837 96.9371 162.932L91.6338 176.162C91.5578 176.371 91.4343 176.542 91.2632 176.675C91.1111 176.808 90.883 176.875 90.5789 176.875H89.3529Z" fill="#EAFEF6"/>
<path d="M105.352 177.16C103.395 177.16 101.836 176.561 100.676 175.364C99.5169 174.147 98.8801 172.494 98.7661 170.403C98.7471 170.156 98.7375 169.842 98.7375 169.462C98.7375 169.063 98.7471 168.739 98.7661 168.492C98.8421 167.143 99.1557 165.964 99.707 164.957C100.258 163.93 101.009 163.142 101.959 162.59C102.929 162.039 104.06 161.763 105.352 161.763C106.797 161.763 108.004 162.068 108.974 162.676C109.962 163.284 110.713 164.149 111.226 165.27C111.739 166.392 111.996 167.704 111.996 169.205V169.69C111.996 169.899 111.929 170.061 111.796 170.175C111.682 170.289 111.53 170.346 111.34 170.346H101.475C101.475 170.365 101.475 170.403 101.475 170.46C101.475 170.517 101.475 170.564 101.475 170.602C101.513 171.382 101.684 172.113 101.988 172.798C102.292 173.463 102.729 174.005 103.3 174.423C103.87 174.841 104.554 175.05 105.352 175.05C106.037 175.05 106.607 174.946 107.063 174.737C107.519 174.527 107.89 174.299 108.175 174.052C108.46 173.786 108.65 173.587 108.745 173.454C108.916 173.206 109.05 173.064 109.145 173.026C109.24 172.969 109.392 172.94 109.601 172.94H110.969C111.159 172.94 111.312 172.997 111.426 173.111C111.559 173.206 111.616 173.349 111.597 173.539C111.578 173.824 111.426 174.176 111.14 174.594C110.855 174.993 110.447 175.392 109.914 175.792C109.382 176.191 108.736 176.523 107.976 176.789C107.215 177.037 106.341 177.16 105.352 177.16ZM101.475 168.378H109.287V168.293C109.287 167.437 109.126 166.677 108.802 166.012C108.498 165.346 108.052 164.824 107.462 164.444C106.873 164.044 106.17 163.845 105.352 163.845C104.535 163.845 103.832 164.044 103.243 164.444C102.672 164.824 102.235 165.346 101.931 166.012C101.627 166.677 101.475 167.437 101.475 168.293V168.378Z" fill="#EAFEF6"/>
<path d="M116.061 176.875C115.871 176.875 115.709 176.818 115.576 176.704C115.462 176.571 115.405 176.409 115.405 176.219V162.733C115.405 162.543 115.462 162.381 115.576 162.248C115.709 162.115 115.871 162.048 116.061 162.048H117.373C117.563 162.048 117.724 162.115 117.857 162.248C117.99 162.381 118.057 162.543 118.057 162.733V163.987C118.437 163.341 118.96 162.856 119.625 162.533C120.29 162.21 121.089 162.048 122.02 162.048H123.161C123.351 162.048 123.503 162.115 123.617 162.248C123.731 162.362 123.788 162.514 123.788 162.704V163.873C123.788 164.063 123.731 164.215 123.617 164.329C123.503 164.443 123.351 164.5 123.161 164.5H121.45C120.423 164.5 119.616 164.805 119.026 165.413C118.437 166.002 118.142 166.81 118.142 167.836V176.219C118.142 176.409 118.076 176.571 117.943 176.704C117.81 176.818 117.648 176.875 117.458 176.875H116.061Z" fill="#EAFEF6"/>
<path d="M140.113 177.16C138.364 177.16 136.91 176.837 135.751 176.191C134.61 175.545 133.745 174.642 133.156 173.482C132.567 172.323 132.243 170.973 132.186 169.433C132.167 168.654 132.158 167.818 132.158 166.924C132.158 166.031 132.167 165.176 132.186 164.358C132.243 162.819 132.567 161.469 133.156 160.309C133.745 159.15 134.61 158.247 135.751 157.601C136.91 156.954 138.364 156.631 140.113 156.631C141.425 156.631 142.574 156.812 143.563 157.173C144.551 157.534 145.369 158.019 146.015 158.627C146.68 159.235 147.184 159.92 147.526 160.68C147.868 161.421 148.058 162.191 148.096 162.99C148.115 163.161 148.058 163.303 147.925 163.417C147.811 163.531 147.669 163.588 147.498 163.588H145.929C145.758 163.588 145.606 163.541 145.473 163.446C145.359 163.351 145.274 163.18 145.217 162.933C144.894 161.45 144.285 160.433 143.392 159.882C142.517 159.331 141.415 159.055 140.084 159.055C138.564 159.055 137.357 159.492 136.463 160.366C135.57 161.222 135.085 162.6 135.009 164.501C134.952 166.059 134.952 167.656 135.009 169.291C135.085 171.192 135.57 172.579 136.463 173.454C137.357 174.309 138.564 174.737 140.084 174.737C141.415 174.737 142.517 174.461 143.392 173.91C144.285 173.359 144.894 172.342 145.217 170.859C145.274 170.612 145.359 170.441 145.473 170.346C145.606 170.251 145.758 170.203 145.929 170.203H147.498C147.669 170.203 147.811 170.26 147.925 170.374C148.058 170.488 148.115 170.631 148.096 170.802C148.058 171.6 147.868 172.38 147.526 173.14C147.184 173.881 146.68 174.556 146.015 175.164C145.369 175.773 144.551 176.257 143.563 176.619C142.574 176.98 141.425 177.16 140.113 177.16Z" fill="#EAFEF6"/>
<path d="M157.62 177.16C156.175 177.16 154.968 176.885 153.999 176.333C153.029 175.782 152.288 175.022 151.775 174.052C151.262 173.064 150.976 171.942 150.919 170.688C150.9 170.365 150.891 169.956 150.891 169.462C150.891 168.949 150.9 168.54 150.919 168.236C150.976 166.962 151.262 165.841 151.775 164.871C152.307 163.902 153.058 163.142 154.027 162.59C154.997 162.039 156.194 161.763 157.62 161.763C159.045 161.763 160.243 162.039 161.212 162.59C162.182 163.142 162.923 163.902 163.436 164.871C163.969 165.841 164.263 166.962 164.32 168.236C164.339 168.54 164.349 168.949 164.349 169.462C164.349 169.956 164.339 170.365 164.32 170.688C164.263 171.942 163.978 173.064 163.465 174.052C162.952 175.022 162.21 175.782 161.241 176.333C160.271 176.885 159.064 177.16 157.62 177.16ZM157.62 174.965C158.798 174.965 159.739 174.594 160.443 173.853C161.146 173.092 161.526 171.99 161.583 170.545C161.602 170.26 161.612 169.899 161.612 169.462C161.612 169.025 161.602 168.663 161.583 168.378C161.526 166.934 161.146 165.841 160.443 165.099C159.739 164.339 158.798 163.959 157.62 163.959C156.441 163.959 155.491 164.339 154.769 165.099C154.065 165.841 153.695 166.934 153.657 168.378C153.638 168.663 153.628 169.025 153.628 169.462C153.628 169.899 153.638 170.26 153.657 170.545C153.695 171.99 154.065 173.092 154.769 173.853C155.491 174.594 156.441 174.965 157.62 174.965Z" fill="#EAFEF6"/>
<path d="M169.891 176.875C169.701 176.875 169.539 176.818 169.406 176.704C169.292 176.571 169.235 176.409 169.235 176.219V164.329H166.812C166.621 164.329 166.46 164.272 166.327 164.158C166.213 164.025 166.156 163.864 166.156 163.674V162.704C166.156 162.514 166.213 162.362 166.327 162.248C166.46 162.115 166.621 162.048 166.812 162.048H169.235V160.623C169.235 159.653 169.397 158.807 169.72 158.085C170.043 157.344 170.556 156.774 171.259 156.374C171.982 155.975 172.942 155.776 174.139 155.776H175.85C176.04 155.776 176.192 155.842 176.306 155.975C176.42 156.089 176.477 156.241 176.477 156.431V157.401C176.477 157.591 176.42 157.752 176.306 157.886C176.192 158 176.04 158.057 175.85 158.057H174.196C173.303 158.057 172.695 158.294 172.371 158.769C172.048 159.226 171.887 159.891 171.887 160.765V162.048H177.988V160.623C177.988 159.653 178.14 158.807 178.445 158.085C178.768 157.344 179.281 156.774 179.984 156.374C180.707 155.975 181.667 155.776 182.864 155.776H184.575C184.765 155.776 184.917 155.842 185.031 155.975C185.164 156.089 185.231 156.241 185.231 156.431V157.401C185.231 157.591 185.164 157.752 185.031 157.886C184.917 158 184.765 158.057 184.575 158.057H182.921C182.028 158.057 181.419 158.294 181.096 158.769C180.773 159.226 180.612 159.891 180.612 160.765V162.048H184.29C184.48 162.048 184.632 162.115 184.746 162.248C184.879 162.362 184.945 162.514 184.945 162.704V163.674C184.945 163.864 184.879 164.025 184.746 164.158C184.632 164.272 184.48 164.329 184.29 164.329H180.612V176.219C180.612 176.409 180.555 176.571 180.44 176.704C180.326 176.818 180.165 176.875 179.956 176.875H178.644C178.454 176.875 178.293 176.818 178.159 176.704C178.045 176.571 177.988 176.409 177.988 176.219V164.329H171.887V176.219C171.887 176.409 171.82 176.571 171.687 176.704C171.573 176.818 171.421 176.875 171.231 176.875H169.891Z" fill="#EAFEF6"/>
<path d="M193.089 177.16C191.131 177.16 189.573 176.561 188.413 175.364C187.254 174.147 186.617 172.494 186.503 170.403C186.484 170.156 186.474 169.842 186.474 169.462C186.474 169.063 186.484 168.739 186.503 168.492C186.579 167.143 186.893 165.964 187.444 164.957C187.995 163.93 188.746 163.142 189.696 162.59C190.666 162.039 191.797 161.763 193.089 161.763C194.534 161.763 195.741 162.068 196.71 162.676C197.699 163.284 198.45 164.149 198.963 165.27C199.476 166.392 199.733 167.704 199.733 169.205V169.69C199.733 169.899 199.666 170.061 199.533 170.175C199.419 170.289 199.267 170.346 199.077 170.346H189.212C189.212 170.365 189.212 170.403 189.212 170.46C189.212 170.517 189.212 170.564 189.212 170.602C189.25 171.382 189.421 172.113 189.725 172.798C190.029 173.463 190.466 174.005 191.036 174.423C191.607 174.841 192.291 175.05 193.089 175.05C193.774 175.05 194.344 174.946 194.8 174.737C195.256 174.527 195.627 174.299 195.912 174.052C196.197 173.786 196.387 173.587 196.482 173.454C196.653 173.206 196.786 173.064 196.881 173.026C196.976 172.969 197.129 172.94 197.338 172.94H198.706C198.896 172.94 199.048 172.997 199.162 173.111C199.295 173.206 199.352 173.349 199.333 173.539C199.314 173.824 199.162 174.176 198.877 174.594C198.592 174.993 198.183 175.392 197.651 175.792C197.119 176.191 196.473 176.523 195.712 176.789C194.952 177.037 194.078 177.16 193.089 177.16ZM189.212 168.378H197.024V168.293C197.024 167.437 196.862 166.677 196.539 166.012C196.235 165.346 195.788 164.824 195.199 164.444C194.61 164.044 193.907 163.845 193.089 163.845C192.272 163.845 191.569 164.044 190.979 164.444C190.409 164.824 189.972 165.346 189.668 166.012C189.364 166.677 189.212 167.437 189.212 168.293V168.378Z" fill="#EAFEF6"/>
<path d="M209.044 177.16C207.086 177.16 205.528 176.561 204.368 175.364C203.209 174.147 202.572 172.494 202.458 170.403C202.439 170.156 202.429 169.842 202.429 169.462C202.429 169.063 202.439 168.739 202.458 168.492C202.534 167.143 202.847 165.964 203.399 164.957C203.95 163.93 204.701 163.142 205.651 162.59C206.621 162.039 207.752 161.763 209.044 161.763C210.489 161.763 211.696 162.068 212.665 162.676C213.654 163.284 214.404 164.149 214.918 165.27C215.431 166.392 215.687 167.704 215.687 169.205V169.69C215.687 169.899 215.621 170.061 215.488 170.175C215.374 170.289 215.222 170.346 215.032 170.346H205.166C205.166 170.365 205.166 170.403 205.166 170.46C205.166 170.517 205.166 170.564 205.166 170.602C205.204 171.382 205.375 172.113 205.68 172.798C205.984 173.463 206.421 174.005 206.991 174.423C207.561 174.841 208.246 175.05 209.044 175.05C209.728 175.05 210.299 174.946 210.755 174.737C211.211 174.527 211.582 174.299 211.867 174.052C212.152 173.786 212.342 173.587 212.437 173.454C212.608 173.206 212.741 173.064 212.836 173.026C212.931 172.969 213.083 172.94 213.292 172.94H214.661C214.851 172.94 215.003 172.997 215.117 173.111C215.25 173.206 215.307 173.349 215.288 173.539C215.269 173.824 215.117 174.176 214.832 174.594C214.547 174.993 214.138 175.392 213.606 175.792C213.074 176.191 212.428 176.523 211.667 176.789C210.907 177.037 210.033 177.16 209.044 177.16ZM205.166 168.378H212.979V168.293C212.979 167.437 212.817 166.677 212.494 166.012C212.19 165.346 211.743 164.824 211.154 164.444C210.565 164.044 209.861 163.845 209.044 163.845C208.227 163.845 207.523 164.044 206.934 164.444C206.364 164.824 205.927 165.346 205.623 166.012C205.318 166.677 205.166 167.437 205.166 168.293V168.378Z" fill="#EAFEF6"/>
</g>
</svg>
