<svg viewBox="24 0 168 122" fill="none" xmlns="http://www.w3.org/2000/svg">
<path d="M92.2879 51.3866C98.1594 57.0496 98.0907 66.4755 92.1372 72.0523L48.8547 112.596C39.712 121.16 24.7614 114.614 24.8528 102.087L25.4487 20.3734C25.5401 7.84642 40.5846 1.51954 49.6014 10.2161L92.2879 51.3866Z" fill="#003D30"/>
<path d="M57.3564 68.1713C57.3564 70.1397 55.7608 71.7354 53.7924 71.7354C51.824 71.7354 50.2283 70.1397 50.2283 68.1713L50.2283 53.9151C50.2283 51.9468 51.824 50.3511 53.7924 50.3511C55.7608 50.3511 57.3564 51.9468 57.3564 53.9151L57.3564 68.1713Z" fill="#00B08A"/>
<path d="M67.4371 71.1239C61.8697 65.5565 61.8697 56.5299 67.4371 50.9626L108.319 10.0808C113.886 4.5134 122.913 4.5134 128.48 10.0808L169.362 50.9626C174.929 56.5299 174.929 65.5565 169.362 71.1239L128.48 112.006C122.913 117.573 113.886 117.573 108.319 112.006L67.4371 71.1239Z" fill="#00B08A"/>
<path d="M92.2891 51.3866C98.1603 57.0496 98.0909 66.4755 92.1377 72.0522L79.862 83.5483L67.4382 71.1246C61.8708 65.5572 61.8708 56.5294 67.4382 50.962L79.4217 38.9768L92.2891 51.3866Z" fill="#B6FF49"/>
<path d="M122.237 51.3866C116.365 57.0496 116.434 66.4755 122.387 72.0523L165.67 112.596C174.812 121.16 189.763 114.614 189.672 102.087L189.076 20.3734C188.984 7.84642 173.94 1.51954 164.923 10.2161L122.237 51.3866Z" fill="#003D30"/>
<path d="M173.188 64.6074C171.22 64.6074 169.624 63.0117 169.624 61.0434C169.624 59.075 171.22 57.4793 173.188 57.4793L187.444 57.4793C189.413 57.4793 191.008 59.075 191.008 61.0434C191.008 63.0117 189.413 64.6074 187.444 64.6074L173.188 64.6074Z" fill="#00B08A"/>
</svg>
